{
  "source": "C:\\Users\\Peter\\Desktop\\stuff\\MIUN\\quantitative_research\\video_compression\\videos\\UVG\\ShakeNDry_1920x1080_120fps_420_8bit_YUV.y4m",
  "output": "C:\\Users\\Peter\\Desktop\\stuff\\MIUN\\quantitative_research\\video_compression\\compressed_videos\\UVG\\av1\\1\\ShakeNDry_1920x1080_120fps_420_8bit_YUV_av1.mkv",
  "codec": "av1",
  "ok": "[yuv4mpegpipe @ 0000022a408f5380] Stream #0: not enough frames to estimate rate; consider increasing probesize\nInput #0, yuv4mpegpipe, from 'C:\\Users\\Peter\\Desktop\\stuff\\MIUN\\quantitative_research\\video_compression\\videos\\UVG\\ShakeNDry_1920x1080_120fps_420_8bit_YUV.y4m':\n  Duration: 00:00:02.50, start: 0.000000, bitrate: 2985989 kb/s\n  Stream #0:0: Video: rawvideo (I420 / 0x30323449), yuv420p(progressive), 1920x1080, 120 fps, 120 tbr, 120 tbn\n[out#0/matroska @ 0000022a408f90c0] Codec AVOption b:a (set bitrate (in bits/s)) has not been used for any stream. The most likely reason is either wrong type (e.g. a video option with no video streams) or that it is a private option of some decoder which was not actually used for any stream.\nStream mapping:\n  Stream #0:0 -> #0:0 (rawvideo (native) -> av1 (libsvtav1))\nPress [q] to stop, [?] for help\nSvt[info]: -------------------------------------------\nSvt[info]: SVT [version]:\tSVT-AV1 Encoder Lib v3.1.0-19-g6ecfe8ec\nSvt[info]: SVT [build]  :\tGCC 15.2.0\t 64 bit\nSvt[info]: LIB Build date: Aug 17 2025 11:37:13\nSvt[info]: -------------------------------------------\n[libsvtav1 @ 0000022a408fc1c0] Specified chroma sample location center is unsupported on the AV1 bit stream level. Usage of a container that allows passing this information - such as Matroska - is recommended.\nSvt[info]: Level of Parallelism: 5\nSvt[info]: Number of PPCS 93\nSvt[info]: [asm level on system : up to avx2]\nSvt[info]: [asm level selected : up to avx2]\nSvt[info]: -------------------------------------------\nSvt[info]: SVT [config]: main profile\ttier (auto)\tlevel (auto)\nSvt[info]: SVT [config]: width / height / fps numerator / fps denominator \t\t: 1920 / 1080 / 120 / 1\nSvt[info]: SVT [config]: bit-depth / color format \t\t\t\t\t: 8 / YUV420\nSvt[info]: SVT [config]: preset / tune / pred struct \t\t\t\t\t: 4 / PSNR / random access\nSvt[info]: SVT [config]: gop size / mini-gop size / key-frame type \t\t\t: 641 / 16 / key frame\nSvt[info]: SVT [config]: BRC mode / target bitrate (kbps)\t\t\t\t: VBR / 1000 \nSvt[info]: SVT [config]: AQ mode / Variance Boost \t\t\t\t\t: 2 / 0\nSvt[info]: SVT [config]: sharpness / luminance-based QP bias \t\t\t\t: 0 / 0\nSvt[info]: SVT [config]: QP scale compress strength \t\t\t\t\t: 0\nSvt[info]: -------------------------------------------\nOutput #0, matroska, to 'C:\\Users\\Peter\\Desktop\\stuff\\MIUN\\quantitative_research\\video_compression\\compressed_videos\\UVG\\av1\\1\\ShakeNDry_1920x1080_120fps_420_8bit_YUV_av1.mkv':\n  Metadata:\n    encoder         : Lavf62.3.100\n  Stream #0:0: Video: av1 (AV01 / 0x31305641), yuv420p(tv, progressive), 1920x1080, q=2-31, 1000 kb/s, 120 fps, 1k tbn\n    Metadata:\n      encoder         : Lavc62.11.100 libsvtav1\n    Side data:\n      cpb: bitrate max/min/avg: 0/0/1000000 buffer size: 1000000 vbv_delay: N/A\nframe=    0 fps=0.0 q=0.0 size=       0KiB time=N/A bitrate=N/A speed=N/A elapsed=0:00:04.93    \nframe=    0 fps=0.0 q=0.0 size=       0KiB time=N/A bitrate=N/A speed=N/A elapsed=0:00:05.45    \nframe=    0 fps=0.0 q=0.0 size=       0KiB time=N/A bitrate=N/A speed=N/A elapsed=0:00:05.98    \nframe=    0 fps=0.0 q=0.0 size=       0KiB time=N/A bitrate=N/A speed=N/A elapsed=0:00:06.51    \nframe=    0 fps=0.0 q=0.0 size=       0KiB time=N/A bitrate=N/A speed=N/A elapsed=0:00:07.03    \nframe=    0 fps=0.0 q=0.0 size=       0KiB time=N/A bitrate=N/A speed=N/A elapsed=0:00:07.55    \nframe=    0 fps=0.0 q=0.0 size=       0KiB time=N/A bitrate=N/A speed=N/A elapsed=0:00:08.12    \nframe=    0 fps=0.0 q=0.0 size=       0KiB time=N/A bitrate=N/A speed=N/A elapsed=0:00:08.73    \nframe=    0 fps=0.0 q=0.0 size=       0KiB time=N/A bitrate=N/A speed=N/A elapsed=0:00:09.25    \nframe=    0 fps=0.0 q=0.0 size=       0KiB time=N/A bitrate=N/A speed=N/A elapsed=0:00:09.77    \nframe=    0 fps=0.0 q=0.0 size=       0KiB time=N/A bitrate=N/A speed=N/A elapsed=0:00:10.29    \nframe=    0 fps=0.0 q=0.0 size=       0KiB time=N/A bitrate=N/A speed=N/A elapsed=0:00:10.82    \nframe=    0 fps=0.0 q=0.0 size=       0KiB time=N/A bitrate=N/A speed=N/A elapsed=0:00:11.34    \nframe=    0 fps=0.0 q=0.0 size=       0KiB time=N/A bitrate=N/A speed=N/A elapsed=0:00:11.88    \nframe=    0 fps=0.0 q=0.0 size=       0KiB time=N/A bitrate=N/A speed=N/A elapsed=0:00:12.41    \nframe=    0 fps=0.0 q=0.0 size=       0KiB time=N/A bitrate=N/A speed=N/A elapsed=0:00:12.93    \nframe=    0 fps=0.0 q=0.0 size=       0KiB time=N/A bitrate=N/A speed=N/A elapsed=0:00:13.45    \nframe=    0 fps=0.0 q=0.0 size=       0KiB time=N/A bitrate=N/A speed=N/A elapsed=0:00:14.02    \nframe=    0 fps=0.0 q=0.0 size=       0KiB time=N/A bitrate=N/A speed=N/A elapsed=0:00:14.55    \nframe=    0 fps=0.0 q=0.0 size=       0KiB time=N/A bitrate=N/A speed=N/A elapsed=0:00:15.06    \nframe=    0 fps=0.0 q=0.0 size=       0KiB time=N/A bitrate=N/A speed=N/A elapsed=0:00:15.58    \nframe=    0 fps=0.0 q=0.0 size=       0KiB time=N/A bitrate=N/A speed=N/A elapsed=0:00:16.13    \nframe=    1 fps=0.1 q=39.0 size=       1KiB time=00:00:00.00 bitrate=N/A speed=   0x elapsed=0:00:16.64    \nframe=    1 fps=0.1 q=39.0 size=       1KiB time=00:00:00.00 bitrate=N/A speed=   0x elapsed=0:00:17.16    \nframe=    2 fps=0.1 q=63.0 size=       1KiB time=00:00:00.00 bitrate= 537.6kbits/s speed=0.000471x elapsed=0:00:17.68    \nframe=    8 fps=0.4 q=61.0 size=       1KiB time=00:00:00.05 bitrate=  76.8kbits/s speed=0.0032x elapsed=0:00:18.20    \nframe=    9 fps=0.5 q=59.0 size=       1KiB time=00:00:00.06 bitrate=  67.2kbits/s speed=0.00356x elapsed=0:00:18.71    \nframe=   12 fps=0.6 q=59.0 size=       1KiB time=00:00:00.09 bitrate=  48.9kbits/s speed=0.00476x elapsed=0:00:19.23    \nframe=   15 fps=0.8 q=60.0 size=       1KiB time=00:00:00.11 bitrate=  38.4kbits/s speed=0.00589x elapsed=0:00:19.80    \nframe=   17 fps=0.8 q=54.0 size=       1KiB time=00:00:00.13 bitrate=  33.6kbits/s speed=0.00656x elapsed=0:00:20.31    \nframe=   18 fps=0.9 q=56.0 size=       1KiB time=00:00:00.14 bitrate=  31.6kbits/s speed=0.0068x elapsed=0:00:20.83    \nframe=   19 fps=0.9 q=56.0 size=       1KiB time=00:00:00.15 bitrate=  29.9kbits/s speed=0.00701x elapsed=0:00:21.38    \nframe=   19 fps=0.9 q=56.0 size=       1KiB time=00:00:00.15 bitrate=  29.9kbits/s speed=0.00684x elapsed=0:00:21.94    \nframe=   21 fps=0.9 q=58.0 size=       1KiB time=00:00:00.16 bitrate=  26.9kbits/s speed=0.00742x elapsed=0:00:22.45    \nframe=   21 fps=0.9 q=58.0 size=       1KiB time=00:00:00.16 bitrate=  26.9kbits/s speed=0.00726x elapsed=0:00:22.97    \nframe=   22 fps=0.9 q=55.0 size=       1KiB time=00:00:00.17 bitrate=  25.6kbits/s speed=0.00745x elapsed=0:00:23.48    \nframe=   23 fps=1.0 q=55.0 size=       1KiB time=00:00:00.18 bitrate=  24.4kbits/s speed=0.00763x elapsed=0:00:24.02    \nframe=   25 fps=1.0 q=57.0 size=       1KiB time=00:00:00.20 bitrate=  22.4kbits/s speed=0.00814x elapsed=0:00:24.56    \nframe=   26 fps=1.0 q=55.0 size=       1KiB time=00:00:00.20 bitrate=  21.5kbits/s speed=0.0083x elapsed=0:00:25.08    \nframe=   28 fps=1.1 q=56.0 size=       1KiB time=00:00:00.22 bitrate=  19.9kbits/s speed=0.00878x elapsed=0:00:25.61    \nframe=   30 fps=1.1 q=54.0 size=       1KiB time=00:00:00.24 bitrate=  18.5kbits/s speed=0.00925x elapsed=0:00:26.13    \nframe=   33 fps=1.2 q=53.0 size=       1KiB time=00:00:00.26 bitrate=  16.8kbits/s speed=0.01x elapsed=0:00:26.65    \nframe=   36 fps=1.3 q=56.0 size=       1KiB time=00:00:00.29 bitrate=  15.4kbits/s speed=0.0107x elapsed=0:00:27.17    \nframe=   38 fps=1.4 q=55.0 size=       1KiB time=00:00:00.30 bitrate=  14.5kbits/s speed=0.0111x elapsed=0:00:27.70    \nframe=   40 fps=1.4 q=55.0 size=       1KiB time=00:00:00.32 bitrate=  13.8kbits/s speed=0.0115x elapsed=0:00:28.22    \nframe=   42 fps=1.5 q=55.0 size=       1KiB time=00:00:00.34 bitrate=  13.1kbits/s speed=0.0119x elapsed=0:00:28.73    \nframe=   42 fps=1.4 q=55.0 size=       1KiB time=00:00:00.34 bitrate=  13.1kbits/s speed=0.0117x elapsed=0:00:29.25    \nframe=   48 fps=1.6 q=54.0 size=       1KiB time=00:00:00.38 bitrate=  11.7kbits/s speed=0.0129x elapsed=0:00:29.77    \nframe=   50 fps=1.6 q=57.0 size=       1KiB time=00:00:00.40 bitrate=  11.0kbits/s speed=0.0135x elapsed=0:00:30.33    \nframe=   52 fps=1.7 q=55.0 size=       1KiB time=00:00:00.42 bitrate=  10.5kbits/s speed=0.0138x elapsed=0:00:30.84    \nframe=   54 fps=1.7 q=56.0 size=       1KiB time=00:00:00.44 bitrate=  10.1kbits/s speed=0.0141x elapsed=0:00:31.35    \nframe=   57 fps=1.8 q=51.0 size=       1KiB time=00:00:00.46 bitrate=   9.6kbits/s speed=0.0146x elapsed=0:00:31.88    \nframe=   58 fps=1.8 q=55.0 size=       1KiB time=00:00:00.47 bitrate=   9.4kbits/s speed=0.0147x elapsed=0:00:32.41    \nframe=   59 fps=1.8 q=57.0 size=       1KiB time=00:00:00.48 bitrate=   9.3kbits/s speed=0.0147x elapsed=0:00:32.92    \nframe=   60 fps=1.8 q=55.0 size=       1KiB time=00:00:00.49 bitrate=   9.1kbits/s speed=0.0147x elapsed=0:00:33.44    \nframe=   63 fps=1.9 q=56.0 size=       1KiB time=00:00:00.51 bitrate=   8.7kbits/s speed=0.0152x elapsed=0:00:33.99    \nframe=   66 fps=1.9 q=57.0 size=       1KiB time=00:00:00.54 bitrate=   8.3kbits/s speed=0.0157x elapsed=0:00:34.50    \nframe=   69 fps=2.0 q=58.0 size=       1KiB time=00:00:00.56 bitrate=   7.9kbits/s speed=0.0162x elapsed=0:00:35.02    \nframe=   71 fps=2.0 q=57.0 size=       1KiB time=00:00:00.58 bitrate=   7.7kbits/s speed=0.0164x elapsed=0:00:35.54    \nframe=   72 fps=2.0 q=56.0 size=       1KiB time=00:00:00.59 bitrate=   7.6kbits/s speed=0.0164x elapsed=0:00:36.06    \nframe=   75 fps=2.1 q=57.0 size=       1KiB time=00:00:00.61 bitrate=   7.3kbits/s speed=0.0169x elapsed=0:00:36.58    \nframe=   78 fps=2.1 q=55.0 size=       1KiB time=00:00:00.63 bitrate=   7.1kbits/s speed=0.0171x elapsed=0:00:37.09    \nframe=   81 fps=2.2 q=40.0 size=       1KiB time=00:00:00.66 bitrate=   6.7kbits/s speed=0.0177x elapsed=0:00:37.67    \nframe=   83 fps=2.2 q=56.0 size=       1KiB time=00:00:00.67 bitrate=   6.6kbits/s speed=0.0177x elapsed=0:00:38.21    \nframe=   85 fps=2.2 q=58.0 size=       1KiB time=00:00:00.70 bitrate=   6.4kbits/s speed=0.018x elapsed=0:00:38.88    \nframe=   87 fps=2.2 q=56.0 size=       1KiB time=00:00:00.70 bitrate=   6.3kbits/s speed=0.018x elapsed=0:00:39.42    \nframe=   89 fps=2.2 q=47.0 size=       1KiB time=00:00:00.73 bitrate=   6.1kbits/s speed=0.0183x elapsed=0:00:40.01    \nframe=   90 fps=2.2 q=53.0 size=       1KiB time=00:00:00.74 bitrate=   6.0kbits/s speed=0.0183x elapsed=0:00:40.54    \nframe=   95 fps=2.3 q=55.0 size=       1KiB time=00:00:00.78 bitrate=   5.7kbits/s speed=0.0191x elapsed=0:00:41.06    \nframe=  101 fps=2.4 q=57.0 size=       1KiB time=00:00:00.83 bitrate=   5.4kbits/s speed=0.02x elapsed=0:00:41.57    \nframe=  103 fps=2.4 q=55.0 size=       1KiB time=00:00:00.85 bitrate=   5.3kbits/s speed=0.0202x elapsed=0:00:42.09    \nframe=  106 fps=2.5 q=51.0 size=       1KiB time=00:00:00.87 bitrate=   5.1kbits/s speed=0.0205x elapsed=0:00:42.67    \nframe=  107 fps=2.5 q=54.0 size=       1KiB time=00:00:00.88 bitrate=   5.1kbits/s speed=0.0204x elapsed=0:00:43.20    \nframe=  110 fps=2.5 q=52.0 size=       1KiB time=00:00:00.90 bitrate=   4.9kbits/s speed=0.0208x elapsed=0:00:43.72    \nframe=  114 fps=2.6 q=51.0 size=       1KiB time=00:00:00.94 bitrate=   4.8kbits/s speed=0.0213x elapsed=0:00:44.24    \nframe=  116 fps=2.6 q=51.0 size=       1KiB time=00:00:00.95 bitrate=   4.7kbits/s speed=0.0214x elapsed=0:00:44.76    \nframe=  118 fps=2.6 q=52.0 size=       1KiB time=00:00:00.97 bitrate=   4.6kbits/s speed=0.0215x elapsed=0:00:45.28    \nframe=  121 fps=2.6 q=44.0 size=       1KiB time=00:00:00.99 bitrate=   4.5kbits/s speed=0.0216x elapsed=0:00:45.83    \nframe=  123 fps=2.7 q=54.0 size=       1KiB time=00:00:01.01 bitrate=   4.4kbits/s speed=0.0219x elapsed=0:00:46.38    \nframe=  128 fps=2.7 q=52.0 size=       1KiB time=00:00:01.05 bitrate=   4.2kbits/s speed=0.0226x elapsed=0:00:46.91    \nframe=  131 fps=2.8 q=55.0 size=       1KiB time=00:00:01.08 bitrate=   4.1kbits/s speed=0.0228x elapsed=0:00:47.42    \nframe=  134 fps=2.8 q=51.0 size=       1KiB time=00:00:01.10 bitrate=   4.1kbits/s speed=0.0229x elapsed=0:00:48.00    \nframe=  136 fps=2.8 q=50.0 size=       1KiB time=00:00:01.12 bitrate=   4.0kbits/s speed=0.0232x elapsed=0:00:48.55    \nframe=  138 fps=2.8 q=49.0 size=       1KiB time=00:00:01.14 bitrate=   3.9kbits/s speed=0.0233x elapsed=0:00:49.07    \nframe=  141 fps=2.8 q=54.0 size=       1KiB time=00:00:01.16 bitrate=   3.8kbits/s speed=0.0235x elapsed=0:00:49.59    \nframe=  144 fps=2.9 q=48.0 size=       1KiB time=00:00:01.18 bitrate=   3.8kbits/s speed=0.0236x elapsed=0:00:50.11    \nframe=  146 fps=2.9 q=50.0 size=       1KiB time=00:00:01.20 bitrate=   3.7kbits/s speed=0.0238x elapsed=0:00:50.79    \nframe=  148 fps=2.9 q=48.0 size=       1KiB time=00:00:01.22 bitrate=   3.7kbits/s speed=0.0239x elapsed=0:00:51.32    \nframe=  150 fps=2.9 q=48.0 size=       1KiB time=00:00:01.24 bitrate=   3.6kbits/s speed=0.0239x elapsed=0:00:51.86    \nframe=  152 fps=2.9 q=47.0 size=       1KiB time=00:00:01.25 bitrate=   3.6kbits/s speed=0.024x elapsed=0:00:52.50    \nframe=  158 fps=3.0 q=48.0 size=       1KiB time=00:00:01.30 bitrate=   3.4kbits/s speed=0.0247x elapsed=0:00:53.06    \nframe=  163 fps=3.0 q=52.0 size=       1KiB time=00:00:01.33 bitrate=   3.4kbits/s speed=0.0249x elapsed=0:00:53.59    \nframe=  166 fps=3.1 q=49.0 size=       1KiB time=00:00:01.37 bitrate=   3.3kbits/s speed=0.0254x elapsed=0:00:54.14    \nframe=  169 fps=3.1 q=42.0 size=       1KiB time=00:00:01.40 bitrate=   3.2kbits/s speed=0.0256x elapsed=0:00:54.69    \nframe=  171 fps=3.1 q=53.0 size=       1KiB time=00:00:01.41 bitrate=   3.2kbits/s speed=0.0256x elapsed=0:00:55.24    \nframe=  175 fps=3.1 q=54.0 size=       1KiB time=00:00:01.45 bitrate=   3.1kbits/s speed=0.026x elapsed=0:00:55.82    \nframe=  179 fps=3.2 q=55.0 size=       1KiB time=00:00:01.48 bitrate=   3.0kbits/s speed=0.0263x elapsed=0:00:56.36    \nframe=  181 fps=3.2 q=55.0 size=       1KiB time=00:00:01.50 bitrate=   3.0kbits/s speed=0.0263x elapsed=0:00:56.96    \nframe=  182 fps=3.2 q=56.0 size=       1KiB time=00:00:01.50 bitrate=   3.0kbits/s speed=0.0262x elapsed=0:00:57.50    \nframe=  185 fps=3.2 q=42.0 size=       1KiB time=00:00:01.53 bitrate=   2.9kbits/s speed=0.0264x elapsed=0:00:58.04    \nframe=  187 fps=3.2 q=56.0 size=       1KiB time=00:00:01.54 bitrate=   2.9kbits/s speed=0.0263x elapsed=0:00:58.68    \nframe=  192 fps=3.2 q=52.0 size=       1KiB time=00:00:01.57 bitrate=   2.8kbits/s speed=0.0266x elapsed=0:00:59.29    \nframe=  197 fps=3.3 q=57.0 size=       1KiB time=00:00:01.61 bitrate=   2.8kbits/s speed=0.027x elapsed=0:00:59.89    \nframe=  198 fps=3.3 q=54.0 size=       1KiB time=00:00:01.64 bitrate=   2.7kbits/s speed=0.0271x elapsed=0:01:00.55    \nframe=  200 fps=3.3 q=55.0 size=       1KiB time=00:00:01.65 bitrate=   2.7kbits/s speed=0.0272x elapsed=0:01:01.07    \nframe=  205 fps=3.3 q=57.0 size=       1KiB time=00:00:01.70 bitrate=   2.6kbits/s speed=0.0276x elapsed=0:01:01.60    \nframe=  205 fps=3.3 q=57.0 size=       1KiB time=00:00:01.70 bitrate=   2.6kbits/s speed=0.0273x elapsed=0:01:02.21    \nframe=  209 fps=3.3 q=37.0 size=       1KiB time=00:00:01.73 bitrate=   2.6kbits/s speed=0.0276x elapsed=0:01:02.84    \nframe=  215 fps=3.4 q=57.0 size=       1KiB time=00:00:01.76 bitrate=   2.5kbits/s speed=0.0279x elapsed=0:01:03.35    \nframe=  219 fps=3.4 q=57.0 size=       1KiB time=00:00:01.80 bitrate=   2.5kbits/s speed=0.0281x elapsed=0:01:03.94    \nframe=  221 fps=3.4 q=57.0 size=       1KiB time=00:00:01.83 bitrate=   2.4kbits/s speed=0.0284x elapsed=0:01:04.48    \nframe=  223 fps=3.4 q=57.0 size=       1KiB time=00:00:01.85 bitrate=   2.4kbits/s speed=0.0284x elapsed=0:01:05.11    \nframe=  227 fps=3.5 q=56.0 size=       1KiB time=00:00:01.88 bitrate=   2.4kbits/s speed=0.0287x elapsed=0:01:05.64    \nframe=  229 fps=3.5 q=57.0 size=       1KiB time=00:00:01.90 bitrate=   2.4kbits/s speed=0.0287x elapsed=0:01:06.16    \nframe=  233 fps=3.5 q=43.0 size=       1KiB time=00:00:01.93 bitrate=   2.3kbits/s speed=0.029x elapsed=0:01:06.67    \nframe=  237 fps=3.5 q=56.0 size=       1KiB time=00:00:01.96 bitrate=   2.3kbits/s speed=0.0293x elapsed=0:01:07.19    \nframe=  241 fps=3.6 q=39.0 size=       1KiB time=00:00:02.00 bitrate=   2.2kbits/s speed=0.0295x elapsed=0:01:07.72    \nframe=  241 fps=3.5 q=39.0 size=       1KiB time=00:00:02.00 bitrate=   2.2kbits/s speed=0.0293x elapsed=0:01:08.25    \nframe=  245 fps=3.6 q=55.0 size=       1KiB time=00:00:02.03 bitrate=   2.2kbits/s speed=0.0296x elapsed=0:01:08.76    \nframe=  247 fps=3.6 q=54.0 size=       1KiB time=00:00:02.05 bitrate=   2.2kbits/s speed=0.0296x elapsed=0:01:09.34    \nframe=  249 fps=3.6 q=43.0 size=       1KiB time=00:00:02.06 bitrate=   2.2kbits/s speed=0.0296x elapsed=0:01:09.86    \nframe=  251 fps=3.6 q=55.0 size=       1KiB time=00:00:02.08 bitrate=   2.2kbits/s speed=0.0296x elapsed=0:01:10.37    \nframe=  255 fps=3.6 q=55.0 size=       1KiB time=00:00:02.11 bitrate=   2.1kbits/s speed=0.0298x elapsed=0:01:10.91    \nframe=  257 fps=3.6 q=39.0 size=       1KiB time=00:00:02.13 bitrate=   2.1kbits/s speed=0.0298x elapsed=0:01:11.50    \nframe=  261 fps=3.6 q=55.0 size=       1KiB time=00:00:02.16 bitrate=   2.1kbits/s speed=0.03x elapsed=0:01:12.11    \nframe=  265 fps=3.6 q=41.0 size=       1KiB time=00:00:02.20 bitrate=   2.0kbits/s speed=0.0302x elapsed=0:01:12.74    \nframe=  265 fps=3.6 q=41.0 size=       1KiB time=00:00:02.20 bitrate=   2.0kbits/s speed=0.03x elapsed=0:01:13.26    \nframe=  271 fps=3.7 q=53.0 size=       1KiB time=00:00:02.25 bitrate=   2.0kbits/s speed=0.0305x elapsed=0:01:13.76    \nframe=  273 fps=3.7 q=35.0 size=       1KiB time=00:00:02.26 bitrate=   2.0kbits/s speed=0.0305x elapsed=0:01:14.28    \nframe=  279 fps=3.7 q=52.0 size=       1KiB time=00:00:02.31 bitrate=   1.9kbits/s speed=0.031x elapsed=0:01:14.80    \nframe=  281 fps=3.7 q=37.0 size=       1KiB time=00:00:02.33 bitrate=   1.9kbits/s speed=0.031x elapsed=0:01:15.31    \nframe=  285 fps=3.8 q=52.0 size=       1KiB time=00:00:02.36 bitrate=   1.9kbits/s speed=0.0312x elapsed=0:01:15.83    \n[out#0/matroska @ 0000022a408f90c0] video:312KiB audio:0KiB subtitle:0KiB other streams:0KiB global headers:0KiB muxing overhead: 0.610021%\nframe=  300 fps=3.9 q=49.0 Lsize=     314KiB time=00:00:02.49 bitrate=1032.1kbits/s speed=0.0326x elapsed=0:01:16.33    \n",
  "seconds": 78.99135112762451,
  "probe_out": {}
}